# xmcd
#
# Track frame offsets:
#  150
#  23705
#  46458
#  73183
#  95754
#  120765
#  134385
#  150514
#  184774
#  205759
#
# Disc length: 3188 seconds
#
# Revision: 7
# Processed by: cddbd v1.5.1PL2 Copyright (c) Steve Scherf et al.
# Submitted via: Collectorz.com_Music_Collector 6.11
#
DISCID=820c720a,8d0c720a
DTITLE=Various Artist - Stereoplay - Highlights CD - The Power Of Blues and Folk
DYEAR=1999
DGENRE=Blues
TTITLE0=Stephen Fearing - Home
TTITLE1=Duke Robillard - That's My Life
TTITLE2=Popa Chubby - She Said That Evil Was Her Name
TTITLE3=Dave Alvin - Blackjack David
TTITLE4=John Gorka - Wisdom
TTITLE5=James Armstrong - Dark Night
TTITLE6=Roy Gaines - Stormy Monday
TTITLE7=Geoff Muldaur - Chevrolet/Big Alice
TTITLE8=Guy Davis - Home Cooked Meal
TTITLE9=Jacintha - Danny Boy
EXTD=
EXTT0=
EXTT1=
EXTT2=
EXTT3=
EXTT4=
EXTT5=
EXTT6=
EXTT7=
EXTT8=
EXTT9=
PLAYORDER=
